<svg xmlns="http://www.w3.org/2000/svg" height="193.551" width="440.764"><defs><clipPath id="a" clipPathUnits="userSpaceOnUse"><path d="M0 145.163h330.573V0H0z"/></clipPath></defs><g clip-path="url(#a)" transform="matrix(1.33333 0 0 -1.33333 0 193.55)"><path d="M87.848 113.412a3.777 3.777 0 10.154-7.555 3.778 3.778 0 00-.154 7.555m15.197 11.646a5.867 5.867 0 10.24-11.732 5.867 5.867 0 00-.24 11.733m19.558 10.994a7.79 7.79 0 007.95-7.63 7.792 7.792 0 10-7.949 7.631m23.538 6.556a9.311 9.311 0 10.381-18.618 9.311 9.311 0 00-.38 18.619m27.307 2.549c6.307.13 11.524-4.879 11.653-11.186.129-6.307-4.88-11.524-11.186-11.653-6.307-.129-11.524 4.88-11.653 11.186-.13 6.307 4.879 11.524 11.186 11.653m31.957-2.682c7.043.144 12.87-5.449 13.014-12.492.144-7.044-5.45-12.87-12.492-13.014-7.044-.144-12.87 5.449-13.014 12.492-.144 7.043 5.448 12.87 12.492 13.014m31.477-12.346c8.142.166 14.877-6.3 15.043-14.441.167-8.142-6.298-14.877-14.44-15.044-8.142-.166-14.877 6.299-15.044 14.44-.166 8.143 6.299 14.878 14.441 15.045m9.74-98.517a3.762 3.762 0 10-.154 7.522 3.762 3.762 0 00.154-7.522m-15.131-11.597a5.841 5.841 0 10-.24 11.68 5.842 5.842 0 00.24-11.68M212.018 9.07a7.757 7.757 0 00-7.915 7.598 7.757 7.757 0 007.598 7.915 7.758 7.758 0 10.317-15.513M188.58 2.54a9.271 9.271 0 00-9.458 9.08 9.271 9.271 0 109.459-9.08M161.39.002c-6.28-.128-11.473 4.858-11.602 11.138-.128 6.28 4.858 11.474 11.138 11.603 6.28.128 11.474-4.858 11.603-11.138C172.657 5.325 167.67.13 161.39.002m-31.819 2.671c-7.013-.143-12.814 5.426-12.958 12.44-.143 7.012 5.425 12.813 12.44 12.956 7.012.144 12.813-5.425 12.956-12.438.144-7.013-5.425-12.815-12.438-12.958M98.23 14.966c-8.108-.165-14.814 6.273-14.98 14.38-.166 8.107 6.272 14.813 14.38 14.979 8.106.164 14.812-6.273 14.978-14.38.166-8.107-6.272-14.813-14.379-14.979m215.118 48.006h-11.935c-.556 0-.944.471-.82 1.048.648 3.01 1.282 6.023 1.913 9.03.632 3.01 1.297 6.015 1.945 9.025.125.58.717 1.052 1.272 1.052h11.96c.588 0 .944-.475.82-1.052l-1.941-9.026-1.942-9.029c-.124-.577-.684-1.048-1.272-1.048m12.278-8.297c.654 0 1.322.518 1.459 1.156l1.284 5.98c.137.638-.307 1.161-.961 1.161h-1.57c-.555 0-.944.471-.821 1.048l2.766 12.877c.92 4.29 1.842 8.58 2.765 12.877.137.638-.274 1.164-.894 1.164h-22.248c-2.45 0-6.282-.19-8.696-1.545-2.604-1.462-3.721-4.377-4.264-6.89-.664-3.078-1.346-6.16-1.994-9.24-.648-3.075-1.298-6.165-1.962-9.243-.125-.577-.685-1.048-1.273-1.048h-1.57c-.621 0-1.257-.522-1.395-1.16l-1.291-5.98c-.137-.635.273-1.157.894-1.157zm-46.508 0c.62 0 1.257.518 1.395 1.156.43 1.995.862 3.986 1.292 5.98.138.638-.272 1.161-.893 1.161h-19.096c-.59 0-.944.471-.82 1.048l1.075 4.957c.125.576.685 1.048 1.274 1.048h17.195c.654 0 1.29.522 1.427 1.157l.796 3.684c.137.635-.273 1.153-.927 1.153h-17.192c-.588 0-.944.472-.818 1.056.36 1.664.723 3.332 1.085 5 .126.58.685 1.052 1.274 1.052h19.083c.62 0 1.256.522 1.393 1.156.395 1.828.79 3.66 1.187 5.491.137.638-.272 1.164-.893 1.164h-29.402c-.654 0-1.29-.526-1.428-1.164L252.44 72.81l-3.686-16.979c-.138-.638.272-1.156.926-1.156zm-37.384 0c.655 0 1.29.518 1.43 1.156l3.689 16.98 3.685 16.963c.139.638-.27 1.164-.924 1.164h-22.247c-2.451 0-6.12-.2-8.48-1.585-2.546-1.49-3.665-4.362-4.207-6.846l-2.018-9.244-2.018-9.247c-.126-.576-.687-1.048-1.275-1.048h-1.57c-.621 0-1.26-.522-1.398-1.16l-1.306-5.977c-.14-.637.27-1.156.892-1.156h4.023c2.093 0 5.894.194 7.71 1.911 1.646 1.557 2.629 5.454 3.06 7.43l1.968 9.033 1.969 9.03c.126.58.687 1.051 1.275 1.051h11.6c.588 0 .977-.47.85-1.055l-2.855-13.116-2.856-13.128c-.14-.638.238-1.156.892-1.156zm-42.877 0c.62 0 1.258.518 1.398 1.156l1.306 5.977c.14.638-.27 1.16-.89 1.16h-21.483c-.588 0-.943.468-.816 1.048l1.98 9.033 1.982 9.03c.127.58.687 1.051 1.276 1.051h21.436c.62 0 1.257.52 1.396 1.157l1.2 5.487c.14.638-.27 1.164-.89 1.164H185.32c-2.482 0-6.632-.162-9.026-1.537-2.653-1.525-3.793-4.769-4.353-7.322l-1.983-9.03-1.985-9.033c-.39-1.776-.812-4.205-.327-5.809.537-1.78 2.072-2.624 3.88-3.025 1.84-.407 3.846-.507 5.842-.507zm-38.757 0c.62 0 1.259.515 1.399 1.153l3.732 16.982 3.73 16.968c.14.638-.268 1.16-.89 1.16h-34.138c-.621 0-1.26-.522-1.4-1.16l-3.748-16.968-3.752-16.982c-.141-.638.267-1.153.889-1.153h8.144c.62 0 1.259.515 1.4 1.153l2.896 13.127 2.895 13.124c.128.58.722 1.051 1.278 1.051h13.496c.588 0 .94-.47.814-1.05l-2.89-13.125-2.89-13.127c-.14-.638.269-1.153.89-1.153zm-42.224 0c.654 0 1.292.515 1.433 1.153l3.755 16.982c1.25 5.657 2.502 11.31 3.752 16.968.14.638-.266 1.16-.92 1.16h-8.624c-.425 0-.795-.183-1.095-.519-3.086-3.45-6.135-6.9-9.186-10.346-3.053-3.447-6.103-6.904-9.16-10.353-.343-.387-.874-.549-1.27-.42-.427.14-.634.537-.53 1.008l2.162 9.736 2.16 9.734c.142.638-.265 1.16-.886 1.16h-7.677c-.654 0-1.292-.522-1.434-1.16L86.584 72.81l-3.775-16.982c-.141-.638.267-1.153.92-1.153h8.7c.393 0 .797.174 1.096.511 3.058 3.445 6.11 6.908 9.164 10.357 3.054 3.45 6.106 6.906 9.193 10.357.345.385.844.56 1.27.42.397-.129.633-.536.529-1.004l-2.157-9.744c-.72-3.246-1.44-6.495-2.158-9.744-.141-.638.267-1.153.889-1.153zm-42.256 0c.62 0 1.26.515 1.402 1.153a464677.347 464677.347 0 007.55 33.95c.143.638-.264 1.16-.884 1.16H61.439c-2.418 0-6.12-.198-8.487-1.58-2.554-1.493-3.654-4.36-4.21-6.848-.688-3.082-1.363-6.172-2.067-9.247-.705-3.086-1.411-6.168-2.1-9.25-.13-.577-.724-1.048-1.28-1.048h-1.537c-.654 0-1.294-.523-1.437-1.16l-1.337-5.977c-.142-.638.265-1.153.919-1.153h3.958c2.093 0 5.92.198 7.72 1.907 1.646 1.565 2.657 5.454 3.098 7.431.672 3.013 1.36 6.02 2.049 9.036.687 3.007 1.344 6.02 2.016 9.033.13.58.693 1.052 1.28 1.052h11.6c.557 0 .942-.472.813-1.052l-2.925-13.127-2.924-13.127c-.142-.638.266-1.153.887-1.153zM9.038 90.938c-.654 0-1.228-.522-1.372-1.16l-1.233-5.487c-.142-.635.198-1.157.85-1.157h21.372c.588 0 .972-.47.842-1.052l-1.122-5.007c-.13-.58-.726-1.052-1.314-1.052H11.34c-.621 0-1.261-.519-1.404-1.157l-.828-3.684c-.143-.635.263-1.16.884-1.16h15.757c.588 0 .973-.472.843-1.049l-1.112-4.96c-.13-.577-.725-1.048-1.314-1.048H2.749c-.654 0-1.23-.523-1.373-1.16L.033 55.827c-.143-.638.198-1.153.852-1.153h21.423c2.027 0 4.076.091 6.13.504 1.987.4 3.909 1.25 5.225 3.028 1.17 1.582 1.853 4.043 2.248 5.806.674 3.013 1.332 6.026 1.989 9.036.658 3.014 1.348 6.02 2.022 9.033.57 2.553.87 5.796-1.106 7.322-1.784 1.378-5.93 1.534-8.413 1.534z" fill="#fb973c" fill-rule="evenodd"/></g></svg>