<?xml version="1.0" encoding="UTF-8" standalone="no"?>
<svg xmlns:dc="http://purl.org/dc/elements/1.1/" xmlns:cc="http://creativecommons.org/ns#" xmlns:rdf="http://www.w3.org/1999/02/22-rdf-syntax-ns#" xmlns:svg="http://www.w3.org/2000/svg" xmlns="http://www.w3.org/2000/svg" viewBox="0 0 440.76401 193.55067" height="193.55067" width="440.76401" xml:space="preserve" id="svg2" version="1.1"><metadata id="metadata8"><rdf:RDF><cc:Work rdf:about=""><dc:format>image/svg+xml</dc:format><dc:type rdf:resource="http://purl.org/dc/dcmitype/StillImage" /><dc:title></dc:title></cc:Work></rdf:RDF></metadata><defs id="defs6"><clipPath id="clipPath18" clipPathUnits="userSpaceOnUse"><path id="path16" d="M 0,145.163 H 330.573 V 0 H 0 Z" /></clipPath></defs><g transform="matrix(1.3333333,0,0,-1.3333333,0,193.55067)" id="g10"><g id="g12"><g clip-path="url(#clipPath18)" id="g14"><g transform="translate(87.8482,113.4115)" id="g20"><path id="path22" style="fill:#fb973c;fill-opacity:1;fill-rule:evenodd;stroke:none" d="M 0,0 C 2.086,0.043 3.812,-1.614 3.854,-3.7 3.897,-5.786 2.24,-7.511 0.154,-7.554 -1.931,-7.597 -3.657,-5.94 -3.7,-3.854 -3.742,-1.768 -2.086,-0.043 0,0" /></g><g transform="translate(103.0453,125.0585)" id="g24"><path id="path26" style="fill:#fb973c;fill-opacity:1;fill-rule:evenodd;stroke:none" d="M 0,0 C 3.24,0.066 5.919,-2.506 5.986,-5.746 6.052,-8.985 3.48,-11.665 0.24,-11.731 -3,-11.798 -5.679,-9.225 -5.746,-5.986 -5.812,-2.746 -3.239,-0.066 0,0" /></g><g transform="translate(122.6035,136.0533)" id="g28"><path id="path30" style="fill:#fb973c;fill-opacity:1;fill-rule:evenodd;stroke:none" d="m 0,0 c 4.302,0.088 7.862,-3.328 7.949,-7.631 0.089,-4.303 -3.328,-7.862 -7.63,-7.95 -4.303,-0.088 -7.862,3.329 -7.95,7.631 C -7.719,-3.647 -4.302,-0.088 0,0" /></g><g transform="translate(146.1424,142.6109)" id="g32"><path id="path34" style="fill:#fb973c;fill-opacity:1;fill-rule:evenodd;stroke:none" d="m 0,0 c 5.141,0.105 9.395,-3.977 9.5,-9.119 0.105,-5.141 -3.978,-9.394 -9.119,-9.5 -5.142,-0.105 -9.395,3.978 -9.5,9.119 C -9.224,-4.358 -5.141,-0.105 0,0" /></g><g transform="translate(173.4497,145.1601)" id="g36"><path id="path38" style="fill:#fb973c;fill-opacity:1;fill-rule:evenodd;stroke:none" d="M 0,0 C 6.307,0.129 11.524,-4.879 11.653,-11.186 11.782,-17.493 6.774,-22.71 0.467,-22.839 -5.84,-22.968 -11.057,-17.96 -11.186,-11.653 -11.315,-5.346 -6.307,-0.129 0,0" /></g><g transform="translate(205.4066,142.478)" id="g40"><path id="path42" style="fill:#fb973c;fill-opacity:1;fill-rule:evenodd;stroke:none" d="m 0,0 c 7.043,0.144 12.87,-5.449 13.014,-12.492 0.144,-7.044 -5.449,-12.87 -12.492,-13.014 -7.044,-0.144 -12.87,5.449 -13.014,12.492 C -12.636,-5.971 -7.044,-0.144 0,0" /></g><g transform="translate(236.884,130.1317)" id="g44"><path id="path46" style="fill:#fb973c;fill-opacity:1;fill-rule:evenodd;stroke:none" d="m 0,0 c 8.142,0.166 14.877,-6.299 15.043,-14.441 0.167,-8.142 -6.298,-14.877 -14.44,-15.044 -8.142,-0.166 -14.877,6.299 -15.044,14.441 C -14.607,-6.902 -8.142,-0.167 0,0" /></g><g transform="translate(246.6241,31.6147)" id="g48"><path id="path50" style="fill:#fb973c;fill-opacity:1;fill-rule:evenodd;stroke:none" d="M 0,0 C -2.077,-0.043 -3.795,1.607 -3.838,3.684 -3.88,5.761 -2.231,7.479 -0.154,7.521 1.923,7.564 3.641,5.915 3.684,3.838 3.726,1.761 2.077,0.043 0,0" /></g><g transform="translate(231.4925,20.0179)" id="g52"><path id="path54" style="fill:#fb973c;fill-opacity:1;fill-rule:evenodd;stroke:none" d="m 0,0 c -3.226,-0.066 -5.894,2.495 -5.96,5.721 -0.066,3.225 2.495,5.894 5.721,5.96 C 2.987,11.747 5.655,9.185 5.721,5.96 5.787,2.734 3.226,0.066 0,0" /></g><g transform="translate(212.0184,9.0704)" id="g56"><path id="path58" style="fill:#fb973c;fill-opacity:1;fill-rule:evenodd;stroke:none" d="m 0,0 c -4.284,-0.088 -7.828,3.314 -7.915,7.598 -0.088,4.284 3.314,7.828 7.598,7.915 C 3.967,15.601 7.51,12.199 7.598,7.915 7.686,3.631 4.284,0.088 0,0" /></g><g transform="translate(188.5807,2.5408)" id="g60"><path id="path62" style="fill:#fb973c;fill-opacity:1;fill-rule:evenodd;stroke:none" d="m 0,0 c -5.119,-0.105 -9.354,3.96 -9.459,9.08 -0.105,5.119 3.96,9.354 9.08,9.459 C 4.74,18.643 8.975,14.578 9.08,9.459 9.184,4.34 5.119,0.105 0,0" /></g><g transform="translate(161.3908,0.0024)" id="g64"><path id="path66" style="fill:#fb973c;fill-opacity:1;fill-rule:evenodd;stroke:none" d="m 0,0 c -6.28,-0.128 -11.474,4.858 -11.603,11.138 -0.128,6.28 4.858,11.474 11.138,11.603 6.28,0.128 11.474,-4.858 11.603,-11.138 C 11.266,5.323 6.28,0.128 0,0" /></g><g transform="translate(129.5714,2.6732)" id="g68"><path id="path70" style="fill:#fb973c;fill-opacity:1;fill-rule:evenodd;stroke:none" d="m 0,0 c -7.013,-0.143 -12.814,5.426 -12.958,12.439 -0.143,7.013 5.425,12.814 12.439,12.957 C 6.494,25.54 12.295,19.971 12.438,12.958 12.582,5.945 7.013,0.143 0,0" /></g><g transform="translate(98.2293,14.9665)" id="g72"><path id="path74" style="fill:#fb973c;fill-opacity:1;fill-rule:evenodd;stroke:none" d="M 0,0 C -8.107,-0.166 -14.813,6.272 -14.979,14.379 -15.145,22.486 -8.707,29.192 -0.6,29.358 7.507,29.523 14.213,23.086 14.379,14.979 14.545,6.872 8.107,0.166 0,0" /></g><g transform="translate(313.3466,62.9724)" id="g76"><path id="path78" style="fill:#fb973c;fill-opacity:1;fill-rule:evenodd;stroke:none" d="m 0,0 h -11.935 c -0.556,0 -0.944,0.471 -0.82,1.048 0.648,3.009 1.282,6.023 1.913,9.029 0.632,3.01 1.297,6.016 1.945,9.026 0.125,0.58 0.717,1.052 1.272,1.052 h 11.96 c 0.588,0 0.944,-0.475 0.82,-1.052 C 4.508,16.093 3.86,13.084 3.214,10.077 2.566,7.068 1.919,4.057 1.272,1.048 1.148,0.471 0.588,0 0,0 m 12.278,-8.297 c 0.654,0 1.322,0.518 1.459,1.156 0.429,1.995 0.856,3.99 1.284,5.98 C 15.158,-0.523 14.714,0 14.06,0 h -1.569 c -0.556,0 -0.945,0.471 -0.822,1.048 0.922,4.293 1.844,8.587 2.766,12.877 0.921,4.29 1.842,8.58 2.765,12.877 0.137,0.638 -0.274,1.164 -0.894,1.164 H -5.942 c -2.45,0 -6.282,-0.19 -8.696,-1.545 -2.604,-1.462 -3.721,-4.377 -4.264,-6.89 -0.664,-3.078 -1.346,-6.161 -1.994,-9.24 C -21.544,7.216 -22.194,4.126 -22.858,1.048 -22.983,0.471 -23.543,0 -24.131,0 h -1.57 c -0.621,0 -1.257,-0.522 -1.395,-1.161 -0.43,-1.994 -0.86,-3.985 -1.291,-5.98 -0.137,-0.634 0.273,-1.156 0.894,-1.156 z m -46.508,0 c 0.621,0 1.257,0.518 1.395,1.156 0.431,1.995 0.862,3.986 1.292,5.98 C -31.405,-0.523 -31.815,0 -32.436,0 h -19.096 c -0.589,0 -0.944,0.471 -0.819,1.048 0.357,1.65 0.716,3.304 1.074,4.957 0.125,0.576 0.685,1.048 1.274,1.048 h 17.195 c 0.654,0 1.29,0.522 1.427,1.157 0.265,1.225 0.53,2.455 0.796,3.684 0.137,0.635 -0.273,1.153 -0.927,1.153 h -17.192 c -0.588,0 -0.944,0.472 -0.818,1.056 0.361,1.664 0.723,3.332 1.085,5 0.126,0.58 0.685,1.052 1.274,1.052 h 19.083 c 0.62,0 1.256,0.522 1.393,1.156 0.395,1.828 0.791,3.66 1.187,5.491 0.137,0.638 -0.272,1.164 -0.893,1.164 h -29.402 c -0.654,0 -1.29,-0.526 -1.428,-1.164 -1.228,-5.657 -2.456,-11.311 -3.683,-16.964 -1.228,-5.657 -2.456,-11.314 -3.686,-16.979 -0.138,-0.638 0.272,-1.156 0.926,-1.156 z m -37.384,0 c 0.655,0 1.291,0.518 1.43,1.156 1.23,5.665 2.459,11.322 3.689,16.979 1.228,5.653 2.456,11.307 3.685,16.964 0.139,0.638 -0.27,1.164 -0.924,1.164 h -22.247 c -2.451,0 -6.119,-0.201 -8.48,-1.585 -2.546,-1.491 -3.665,-4.362 -4.207,-6.846 -0.673,-3.082 -1.346,-6.169 -2.018,-9.244 -0.672,-3.078 -1.346,-6.165 -2.018,-9.247 -0.126,-0.576 -0.687,-1.048 -1.275,-1.048 h -1.57 c -0.621,0 -1.259,-0.522 -1.398,-1.16 -0.435,-1.991 -0.871,-3.985 -1.306,-5.977 -0.14,-0.637 0.27,-1.156 0.892,-1.156 h 4.023 c 2.093,0 5.894,0.194 7.71,1.911 1.646,1.557 2.629,5.454 3.06,7.43 0.656,3.013 1.312,6.024 1.968,9.033 0.656,3.007 1.312,6.017 1.969,9.03 0.126,0.58 0.687,1.051 1.275,1.051 h 11.6 c 0.588,0 0.977,-0.471 0.85,-1.055 -0.951,-4.37 -1.904,-8.743 -2.855,-13.116 -0.952,-4.377 -1.903,-8.751 -2.856,-13.128 -0.139,-0.638 0.238,-1.156 0.892,-1.156 z m -42.877,0 c 0.621,0 1.258,0.518 1.398,1.156 0.435,1.991 0.871,3.986 1.306,5.977 0.14,0.638 -0.269,1.16 -0.89,1.16 h -21.483 c -0.588,0 -0.943,0.468 -0.816,1.048 0.66,3.013 1.321,6.024 1.981,9.033 0.66,3.01 1.32,6.016 1.981,9.03 0.127,0.58 0.687,1.051 1.276,1.051 h 21.436 c 0.621,0 1.257,0.519 1.396,1.157 0.4,1.828 0.801,3.659 1.2,5.487 0.14,0.638 -0.269,1.164 -0.889,1.164 h -21.432 c -2.482,0 -6.632,-0.162 -9.026,-1.537 -2.653,-1.525 -3.793,-4.769 -4.353,-7.322 -0.661,-3.014 -1.323,-6.02 -1.983,-9.03 -0.661,-3.009 -1.323,-6.02 -1.985,-9.033 -0.39,-1.776 -0.812,-4.205 -0.327,-5.809 0.537,-1.78 2.072,-2.624 3.881,-3.025 1.84,-0.407 3.845,-0.507 5.841,-0.507 z m -38.757,0 c 0.621,0 1.259,0.515 1.399,1.153 1.245,5.664 2.489,11.322 3.732,16.982 1.243,5.657 2.486,11.311 3.73,16.968 0.14,0.638 -0.268,1.16 -0.889,1.16 h -34.139 c -0.621,0 -1.259,-0.522 -1.4,-1.16 -1.249,-5.658 -2.498,-11.311 -3.748,-16.968 -1.251,-5.661 -2.501,-11.318 -3.752,-16.982 -0.141,-0.638 0.267,-1.153 0.889,-1.153 h 8.144 c 0.621,0 1.259,0.515 1.4,1.153 0.966,4.377 1.932,8.754 2.896,13.127 0.966,4.377 1.93,8.75 2.895,13.124 0.128,0.58 0.722,1.051 1.278,1.051 h 13.496 c 0.588,0 0.941,-0.471 0.814,-1.051 -0.963,-4.374 -1.926,-8.747 -2.889,-13.124 -0.963,-4.373 -1.927,-8.75 -2.89,-13.127 -0.14,-0.638 0.268,-1.153 0.89,-1.153 z m -42.224,0 c 0.654,0 1.292,0.515 1.433,1.153 1.252,5.664 2.504,11.322 3.755,16.982 1.251,5.657 2.502,11.31 3.752,16.968 0.141,0.638 -0.266,1.16 -0.92,1.16 h -8.624 c -0.425,0 -0.795,-0.183 -1.095,-0.519 -3.086,-3.45 -6.135,-6.9 -9.186,-10.346 -3.053,-3.447 -6.103,-6.904 -9.16,-10.353 -0.343,-0.387 -0.874,-0.549 -1.27,-0.42 -0.427,0.139 -0.634,0.537 -0.529,1.008 0.719,3.245 1.441,6.491 2.161,9.736 0.72,3.242 1.44,6.488 2.16,9.734 0.142,0.638 -0.265,1.16 -0.886,1.16 h -7.677 c -0.654,0 -1.292,-0.522 -1.434,-1.16 -1.257,-5.654 -2.514,-11.311 -3.771,-16.968 -1.258,-5.66 -2.516,-11.321 -3.775,-16.982 -0.141,-0.638 0.267,-1.153 0.921,-1.153 h 8.699 c 0.393,0 0.797,0.174 1.096,0.511 3.058,3.445 6.111,6.908 9.164,10.357 3.054,3.449 6.106,6.906 9.193,10.357 0.345,0.385 0.844,0.559 1.27,0.42 0.397,-0.129 0.633,-0.536 0.529,-1.004 -0.719,-3.249 -1.438,-6.498 -2.157,-9.744 -0.72,-3.246 -1.439,-6.495 -2.158,-9.744 -0.141,-0.638 0.267,-1.153 0.889,-1.153 z m -42.256,0 c 0.621,0 1.26,0.515 1.402,1.153 1.259,5.661 2.518,11.322 3.777,16.982 1.259,5.657 2.517,11.314 3.774,16.968 0.142,0.638 -0.265,1.16 -0.885,1.16 h -22.248 c -2.418,0 -6.119,-0.198 -8.487,-1.581 -2.554,-1.492 -3.654,-4.359 -4.209,-6.847 -0.689,-3.082 -1.364,-6.172 -2.068,-9.247 -0.705,-3.086 -1.411,-6.168 -2.1,-9.25 -0.129,-0.577 -0.724,-1.048 -1.28,-1.048 h -1.537 c -0.654,0 -1.294,-0.523 -1.437,-1.161 -0.446,-1.994 -0.892,-3.985 -1.337,-5.976 -0.142,-0.638 0.265,-1.153 0.919,-1.153 h 3.958 c 2.093,0 5.921,0.198 7.72,1.907 1.646,1.565 2.657,5.454 3.098,7.431 0.672,3.013 1.36,6.019 2.049,9.036 0.687,3.007 1.344,6.02 2.016,9.033 0.13,0.58 0.693,1.052 1.281,1.052 h 11.6 c 0.556,0 0.941,-0.472 0.812,-1.052 -0.975,-4.377 -1.95,-8.75 -2.925,-13.127 -0.974,-4.377 -1.95,-8.75 -2.924,-13.127 -0.142,-0.638 0.266,-1.153 0.887,-1.153 z m -66.581,36.263 c -0.654,0 -1.228,-0.522 -1.372,-1.16 -0.41,-1.828 -0.822,-3.656 -1.233,-5.487 -0.142,-0.635 0.198,-1.157 0.851,-1.157 h 21.371 c 0.588,0 0.972,-0.471 0.842,-1.052 -0.374,-1.671 -0.748,-3.339 -1.122,-5.007 -0.13,-0.58 -0.726,-1.052 -1.314,-1.052 h -15.721 c -0.621,0 -1.261,-0.519 -1.404,-1.157 -0.277,-1.229 -0.553,-2.459 -0.828,-3.684 -0.143,-0.635 0.263,-1.161 0.884,-1.161 h 15.757 c 0.588,0 0.973,-0.471 0.843,-1.048 -0.371,-1.653 -0.742,-3.31 -1.112,-4.96 -0.129,-0.577 -0.725,-1.048 -1.314,-1.048 h -21.417 c -0.654,0 -1.229,-0.523 -1.373,-1.161 -0.448,-1.994 -0.896,-3.985 -1.343,-5.976 -0.143,-0.638 0.198,-1.153 0.852,-1.153 h 21.423 c 2.027,0 4.076,0.091 6.131,0.504 1.986,0.399 3.908,1.249 5.224,3.028 1.17,1.582 1.853,4.043 2.248,5.806 0.674,3.013 1.332,6.026 1.989,9.036 0.658,3.014 1.348,6.02 2.022,9.033 0.571,2.553 0.87,5.796 -1.106,7.322 -1.784,1.378 -5.93,1.534 -8.413,1.534 z" /></g></g></g></g></svg>